# MagicaVoxel @ Ephtracy

# group
o 

# material
mtllib chip_edge.mtl
usemtl palette

# normals
vn -1 0 0
vn 1 0 0
vn 0 0 1
vn 0 0 -1
vn 0 -1 0
vn 0 1 0

# texcoords
vt 0.689453 0.5
vt 0.693359 0.5
vt 0.697266 0.5
vt 0.701172 0.5

# verts
v 0 0.4 0
v 0 0.4 -0.1
v 0 0.4 -0.2
v 0 0.4 -0.3
v 0 0.5 0
v 0 0.5 -0.1
v 0 0.5 -0.2
v 0 0.5 -0.3
v 0.1 0.5 -0.1
v 0.1 0.5 -0.2
v 0.1 0.7 -0.1
v 0.1 0.7 -0.2
v 0.2 0.5 0
v 0.2 0.5 -0.1
v 0.2 0.5 -0.2
v 0.2 0.5 -0.3
v 0.2 0.7 0
v 0.2 0.7 -0.1
v 0.2 0.7 -0.2
v 0.2 0.7 -0.3
v 0.3 0.4 0
v 0.3 0.4 -0.3
v 0.3 0.5 0
v 0.3 0.5 -0.3
v 0.3 0.7 0
v 0.3 0.7 -0.3
v 0 0.4 0
v 0 0.5 0
v 0.2 0.5 0
v 0.2 0.7 0
v 0.3 0.4 0
v 0.3 0.5 0
v 0.3 0.7 0
v 0.1 0.5 -0.1
v 0.1 0.7 -0.1
v 0.2 0.5 -0.1
v 0.2 0.7 -0.1
v 0.1 0.5 -0.2
v 0.1 0.7 -0.2
v 0.2 0.5 -0.2
v 0.2 0.7 -0.2
v 0 0.4 -0.3
v 0 0.5 -0.3
v 0.2 0.5 -0.3
v 0.2 0.7 -0.3
v 0.3 0.4 -0.3
v 0.3 0.5 -0.3
v 0.3 0.7 -0.3
v 0 0.4 0
v 0.3 0.4 0
v 0 0.4 -0.1
v 0.1 0.4 -0.1
v 0 0.4 -0.2
v 0.1 0.4 -0.2
v 0 0.4 -0.3
v 0.3 0.4 -0.3
v 0 0.5 0
v 0.2 0.5 0
v 0 0.5 -0.1
v 0.1 0.5 -0.1
v 0.2 0.5 -0.1
v 0 0.5 -0.2
v 0.1 0.5 -0.2
v 0.2 0.5 -0.2
v 0 0.5 -0.3
v 0.2 0.5 -0.3
v 0.2 0.7 0
v 0.3 0.7 0
v 0.1 0.7 -0.1
v 0.2 0.7 -0.1
v 0.1 0.7 -0.2
v 0.2 0.7 -0.2
v 0.2 0.7 -0.3
v 0.3 0.7 -0.3

# faces
f 5/1/1 2/1/1 1/1/1
f 6/2/1 3/2/1 2/2/1
f 6/1/1 2/1/1 5/1/1
f 7/1/1 4/1/1 3/1/1
f 7/2/1 3/2/1 6/2/1
f 8/1/1 4/1/1 7/1/1
f 11/4/1 10/4/1 9/4/1
f 12/4/1 10/4/1 11/4/1
f 17/3/1 14/3/1 13/3/1
f 18/3/1 14/3/1 17/3/1
f 19/3/1 16/3/1 15/3/1
f 20/3/1 16/3/1 19/3/1
f 21/1/2 22/1/2 23/1/2
f 23/1/2 22/1/2 24/1/2
f 23/3/2 24/3/2 25/3/2
f 25/3/2 24/3/2 26/3/2
f 29/1/3 28/1/3 27/1/3
f 31/1/3 29/1/3 27/1/3
f 32/3/3 30/3/3 29/3/3
f 32/1/3 29/1/3 31/1/3
f 33/3/3 30/3/3 32/3/3
f 36/4/3 35/4/3 34/4/3
f 37/4/3 35/4/3 36/4/3
f 38/4/4 39/4/4 40/4/4
f 40/4/4 39/4/4 41/4/4
f 42/1/4 43/1/4 44/1/4
f 42/1/4 44/1/4 46/1/4
f 44/3/4 45/3/4 47/3/4
f 46/1/4 44/1/4 47/1/4
f 47/3/4 45/3/4 48/3/4
f 51/1/5 50/1/5 49/1/5
f 52/1/5 50/1/5 51/1/5
f 53/2/5 52/2/5 51/2/5
f 54/1/5 50/1/5 52/1/5
f 54/2/5 52/2/5 53/2/5
f 55/1/5 54/1/5 53/1/5
f 56/1/5 50/1/5 54/1/5
f 56/1/5 54/1/5 55/1/5
f 57/1/6 58/1/6 59/1/6
f 59/1/6 58/1/6 60/1/6
f 60/1/6 58/1/6 61/1/6
f 59/2/6 60/2/6 62/2/6
f 62/2/6 60/2/6 63/2/6
f 62/1/6 63/1/6 65/1/6
f 63/1/6 64/1/6 65/1/6
f 65/1/6 64/1/6 66/1/6
f 67/3/6 68/3/6 70/3/6
f 69/4/6 70/4/6 71/4/6
f 70/3/6 68/3/6 72/3/6
f 71/4/6 70/4/6 72/4/6
f 72/3/6 68/3/6 73/3/6
f 73/3/6 68/3/6 74/3/6
