# MagicaVoxel @ Ephtracy

# group
o 

# material
mtllib grass_inner_corner.mtl
usemtl palette

# normals
vn -1 0 0
vn 1 0 0
vn 0 0 1
vn 0 0 -1
vn 0 -1 0
vn 0 1 0

# texcoords
vt 0.763672 0.5
vt 0.876953 0.5
vt 0.884766 0.5

# verts
v 0 0.4 0
v 0 0.4 -0.8
v 0 0.7 0
v 0 0.7 -0.8
v 0.3 0.6 -0.5
v 0.3 0.6 -0.8
v 0.3 0.7 -0.5
v 0.3 0.7 -0.8
v 0.4 0.6 -0.4
v 0.4 0.6 -0.5
v 0.4 0.7 -0.4
v 0.4 0.7 -0.5
v 0.5 0.5 -0.6
v 0.5 0.5 -0.8
v 0.5 0.6 -0.3
v 0.5 0.6 -0.4
v 0.5 0.6 -0.6
v 0.5 0.6 -0.8
v 0.5 0.7 -0.3
v 0.5 0.7 -0.4
v 0.6 0.5 -0.5
v 0.6 0.5 -0.6
v 0.6 0.6 -0.5
v 0.6 0.6 -0.6
v 0.8 0.4 0
v 0.8 0.4 -0.3
v 0.8 0.4 -0.5
v 0.8 0.4 -0.8
v 0.8 0.5 -0.5
v 0.8 0.5 -0.8
v 0.8 0.6 -0.3
v 0.8 0.6 -0.5
v 0.8 0.7 0
v 0.8 0.7 -0.3
v 0 0.4 0
v 0 0.7 0
v 0.8 0.4 0
v 0.8 0.7 0
v 0.5 0.6 -0.3
v 0.5 0.7 -0.3
v 0.8 0.6 -0.3
v 0.8 0.7 -0.3
v 0.4 0.6 -0.4
v 0.4 0.7 -0.4
v 0.5 0.6 -0.4
v 0.5 0.7 -0.4
v 0.3 0.6 -0.5
v 0.3 0.7 -0.5
v 0.4 0.6 -0.5
v 0.4 0.7 -0.5
v 0.6 0.5 -0.5
v 0.6 0.6 -0.5
v 0.8 0.5 -0.5
v 0.8 0.6 -0.5
v 0.5 0.5 -0.6
v 0.5 0.6 -0.6
v 0.6 0.5 -0.6
v 0.6 0.6 -0.6
v 0 0.4 -0.8
v 0 0.7 -0.8
v 0.3 0.4 -0.8
v 0.3 0.6 -0.8
v 0.3 0.7 -0.8
v 0.5 0.4 -0.8
v 0.5 0.5 -0.8
v 0.5 0.6 -0.8
v 0.8 0.4 -0.8
v 0.8 0.5 -0.8
v 0 0.4 0
v 0.8 0.4 0
v 0.3 0.4 -0.3
v 0.8 0.4 -0.3
v 0.3 0.4 -0.5
v 0.8 0.4 -0.5
v 0.3 0.4 -0.7
v 0.5 0.4 -0.7
v 0 0.4 -0.8
v 0.3 0.4 -0.8
v 0.5 0.4 -0.8
v 0.8 0.4 -0.8
v 0.6 0.5 -0.5
v 0.8 0.5 -0.5
v 0.5 0.5 -0.6
v 0.6 0.5 -0.6
v 0.5 0.5 -0.8
v 0.8 0.5 -0.8
v 0.5 0.6 -0.3
v 0.8 0.6 -0.3
v 0.4 0.6 -0.4
v 0.5 0.6 -0.4
v 0.3 0.6 -0.5
v 0.4 0.6 -0.5
v 0.6 0.6 -0.5
v 0.8 0.6 -0.5
v 0.5 0.6 -0.6
v 0.6 0.6 -0.6
v 0.3 0.6 -0.8
v 0.5 0.6 -0.8
v 0 0.7 0
v 0.8 0.7 0
v 0.5 0.7 -0.3
v 0.8 0.7 -0.3
v 0.4 0.7 -0.4
v 0.5 0.7 -0.4
v 0.3 0.7 -0.5
v 0.4 0.7 -0.5
v 0 0.7 -0.8
v 0.3 0.7 -0.8

# faces
f 3/2/1 2/2/1 1/2/1
f 4/2/1 2/2/1 3/2/1
f 5/2/2 6/2/2 7/2/2
f 7/2/2 6/2/2 8/2/2
f 9/2/2 10/2/2 11/2/2
f 11/2/2 10/2/2 12/2/2
f 13/1/2 14/1/2 17/1/2
f 17/1/2 14/1/2 18/1/2
f 15/2/2 16/2/2 19/2/2
f 19/2/2 16/2/2 20/2/2
f 21/1/2 22/1/2 23/1/2
f 23/1/2 22/1/2 24/1/2
f 26/1/2 27/1/2 29/1/2
f 27/3/2 28/3/2 29/3/2
f 29/3/2 28/3/2 30/3/2
f 25/2/2 26/2/2 31/2/2
f 26/1/2 29/1/2 31/1/2
f 31/1/2 29/1/2 32/1/2
f 25/2/2 31/2/2 33/2/2
f 33/2/2 31/2/2 34/2/2
f 37/2/3 36/2/3 35/2/3
f 38/2/3 36/2/3 37/2/3
f 39/2/4 40/2/4 41/2/4
f 41/2/4 40/2/4 42/2/4
f 43/2/4 44/2/4 45/2/4
f 45/2/4 44/2/4 46/2/4
f 47/2/4 48/2/4 49/2/4
f 49/2/4 48/2/4 50/2/4
f 51/1/4 52/1/4 53/1/4
f 53/1/4 52/1/4 54/1/4
f 55/1/4 56/1/4 57/1/4
f 57/1/4 56/1/4 58/1/4
f 59/2/4 60/2/4 61/2/4
f 61/2/4 60/2/4 62/2/4
f 62/2/4 60/2/4 63/2/4
f 61/1/4 62/1/4 64/1/4
f 64/1/4 62/1/4 65/1/4
f 65/1/4 62/1/4 66/1/4
f 64/3/4 65/3/4 67/3/4
f 67/3/4 65/3/4 68/3/4
f 71/2/5 70/2/5 69/2/5
f 72/2/5 70/2/5 71/2/5
f 73/2/5 71/2/5 69/2/5
f 73/1/5 72/1/5 71/1/5
f 74/1/5 72/1/5 73/1/5
f 75/2/5 73/2/5 69/2/5
f 75/3/5 74/3/5 73/3/5
f 76/3/5 74/3/5 75/3/5
f 77/2/5 75/2/5 69/2/5
f 78/1/5 76/1/5 75/1/5
f 78/2/5 75/2/5 77/2/5
f 79/3/5 74/3/5 76/3/5
f 79/1/5 76/1/5 78/1/5
f 80/3/5 74/3/5 79/3/5
f 81/3/6 82/3/6 84/3/6
f 83/3/6 84/3/6 85/3/6
f 84/3/6 82/3/6 86/3/6
f 85/3/6 84/3/6 86/3/6
f 87/1/6 88/1/6 90/1/6
f 89/1/6 90/1/6 92/1/6
f 90/1/6 88/1/6 93/1/6
f 92/1/6 90/1/6 93/1/6
f 93/1/6 88/1/6 94/1/6
f 91/1/6 92/1/6 95/1/6
f 92/1/6 93/1/6 95/1/6
f 95/1/6 93/1/6 96/1/6
f 91/1/6 95/1/6 97/1/6
f 97/1/6 95/1/6 98/1/6
f 99/2/6 100/2/6 101/2/6
f 101/2/6 100/2/6 102/2/6
f 99/2/6 101/2/6 103/2/6
f 103/2/6 101/2/6 104/2/6
f 99/2/6 103/2/6 105/2/6
f 105/2/6 103/2/6 106/2/6
f 99/2/6 105/2/6 107/2/6
f 107/2/6 105/2/6 108/2/6
