# MagicaVoxel @ Ephtracy

# group
o 

# material
mtllib grass_side.mtl
usemtl palette

# normals
vn -1 0 0
vn 1 0 0
vn 0 0 1
vn 0 0 -1
vn 0 -1 0
vn 0 1 0

# texcoords
vt 0.763672 0.5
vt 0.876953 0.5
vt 0.884766 0.5

# verts
v 0 0.4 0
v 0 0.4 -0.3
v 0 0.4 -0.5
v 0 0.4 -0.8
v 0 0.5 -0.5
v 0 0.5 -0.8
v 0 0.6 -0.3
v 0 0.6 -0.5
v 0 0.7 0
v 0 0.7 -0.3
v 0.8 0.4 0
v 0.8 0.4 -0.3
v 0.8 0.4 -0.5
v 0.8 0.4 -0.8
v 0.8 0.5 -0.5
v 0.8 0.5 -0.8
v 0.8 0.6 -0.3
v 0.8 0.6 -0.5
v 0.8 0.7 0
v 0.8 0.7 -0.3
v 0 0.4 0
v 0 0.7 0
v 0.8 0.4 0
v 0.8 0.7 0
v 0 0.6 -0.3
v 0 0.7 -0.3
v 0.8 0.6 -0.3
v 0.8 0.7 -0.3
v 0 0.5 -0.5
v 0 0.6 -0.5
v 0.8 0.5 -0.5
v 0.8 0.6 -0.5
v 0 0.4 -0.8
v 0 0.5 -0.8
v 0.8 0.4 -0.8
v 0.8 0.5 -0.8
v 0 0.4 0
v 0.8 0.4 0
v 0 0.4 -0.3
v 0.8 0.4 -0.3
v 0 0.4 -0.5
v 0.8 0.4 -0.5
v 0 0.4 -0.8
v 0.8 0.4 -0.8
v 0 0.5 -0.5
v 0.8 0.5 -0.5
v 0 0.5 -0.8
v 0.8 0.5 -0.8
v 0 0.6 -0.3
v 0.8 0.6 -0.3
v 0 0.6 -0.5
v 0.8 0.6 -0.5
v 0 0.7 0
v 0.8 0.7 0
v 0 0.7 -0.3
v 0.8 0.7 -0.3

# faces
f 5/1/1 3/1/1 2/1/1
f 5/3/1 4/3/1 3/3/1
f 6/3/1 4/3/1 5/3/1
f 7/2/1 2/2/1 1/2/1
f 7/1/1 5/1/1 2/1/1
f 8/1/1 5/1/1 7/1/1
f 9/2/1 7/2/1 1/2/1
f 10/2/1 7/2/1 9/2/1
f 12/1/2 13/1/2 15/1/2
f 13/3/2 14/3/2 15/3/2
f 15/3/2 14/3/2 16/3/2
f 11/2/2 12/2/2 17/2/2
f 12/1/2 15/1/2 17/1/2
f 17/1/2 15/1/2 18/1/2
f 11/2/2 17/2/2 19/2/2
f 19/2/2 17/2/2 20/2/2
f 23/2/3 22/2/3 21/2/3
f 24/2/3 22/2/3 23/2/3
f 25/2/4 26/2/4 27/2/4
f 27/2/4 26/2/4 28/2/4
f 29/1/4 30/1/4 31/1/4
f 31/1/4 30/1/4 32/1/4
f 33/3/4 34/3/4 35/3/4
f 35/3/4 34/3/4 36/3/4
f 39/2/5 38/2/5 37/2/5
f 40/2/5 38/2/5 39/2/5
f 41/1/5 40/1/5 39/1/5
f 42/1/5 40/1/5 41/1/5
f 43/3/5 42/3/5 41/3/5
f 44/3/5 42/3/5 43/3/5
f 45/3/6 46/3/6 47/3/6
f 47/3/6 46/3/6 48/3/6
f 49/1/6 50/1/6 51/1/6
f 51/1/6 50/1/6 52/1/6
f 53/2/6 54/2/6 55/2/6
f 55/2/6 54/2/6 56/2/6
