# MagicaVoxel @ Ephtracy

# group
o 

# material
mtllib grass_corner.mtl
usemtl palette

# normals
vn -1 0 0
vn 1 0 0
vn 0 0 1
vn 0 0 -1
vn 0 -1 0
vn 0 1 0

# texcoords
vt 0.763672 0.5
vt 0.876953 0.5
vt 0.884766 0.5

# verts
v 0 0.4 0
v 0 0.4 -0.3
v 0 0.4 -0.5
v 0 0.4 -0.8
v 0 0.5 -0.5
v 0 0.5 -0.8
v 0 0.6 -0.3
v 0 0.6 -0.5
v 0 0.7 0
v 0 0.7 -0.3
v 0.2 0.6 -0.2
v 0.2 0.6 -0.3
v 0.2 0.7 -0.2
v 0.2 0.7 -0.3
v 0.3 0.5 -0.4
v 0.3 0.5 -0.5
v 0.3 0.6 0
v 0.3 0.6 -0.2
v 0.3 0.6 -0.4
v 0.3 0.6 -0.5
v 0.3 0.7 0
v 0.3 0.7 -0.2
v 0.4 0.5 -0.3
v 0.4 0.5 -0.4
v 0.4 0.6 -0.3
v 0.4 0.6 -0.4
v 0.5 0.5 0
v 0.5 0.5 -0.3
v 0.5 0.6 0
v 0.5 0.6 -0.3
v 0.8 0.4 0
v 0.8 0.4 -0.8
v 0.8 0.5 0
v 0.8 0.5 -0.8
v 0 0.4 0
v 0 0.7 0
v 0.3 0.4 0
v 0.3 0.6 0
v 0.3 0.7 0
v 0.5 0.4 0
v 0.5 0.5 0
v 0.5 0.6 0
v 0.8 0.4 0
v 0.8 0.5 0
v 0.2 0.6 -0.2
v 0.2 0.7 -0.2
v 0.3 0.6 -0.2
v 0.3 0.7 -0.2
v 0 0.6 -0.3
v 0 0.7 -0.3
v 0.2 0.6 -0.3
v 0.2 0.7 -0.3
v 0.4 0.5 -0.3
v 0.4 0.6 -0.3
v 0.5 0.5 -0.3
v 0.5 0.6 -0.3
v 0.3 0.5 -0.4
v 0.3 0.6 -0.4
v 0.4 0.5 -0.4
v 0.4 0.6 -0.4
v 0 0.5 -0.5
v 0 0.6 -0.5
v 0.3 0.5 -0.5
v 0.3 0.6 -0.5
v 0 0.4 -0.8
v 0 0.5 -0.8
v 0.8 0.4 -0.8
v 0.8 0.5 -0.8
v 0 0.4 0
v 0.3 0.4 0
v 0.5 0.4 0
v 0.8 0.4 0
v 0 0.4 -0.3
v 0.3 0.4 -0.3
v 0.4 0.4 -0.3
v 0.5 0.4 -0.3
v 0.3 0.4 -0.4
v 0.4 0.4 -0.4
v 0 0.4 -0.5
v 0.3 0.4 -0.5
v 0 0.4 -0.8
v 0.8 0.4 -0.8
v 0.5 0.5 0
v 0.8 0.5 0
v 0.4 0.5 -0.3
v 0.5 0.5 -0.3
v 0.3 0.5 -0.4
v 0.4 0.5 -0.4
v 0 0.5 -0.5
v 0.3 0.5 -0.5
v 0 0.5 -0.8
v 0.8 0.5 -0.8
v 0.3 0.6 0
v 0.5 0.6 0
v 0.2 0.6 -0.2
v 0.3 0.6 -0.2
v 0 0.6 -0.3
v 0.2 0.6 -0.3
v 0.4 0.6 -0.3
v 0.5 0.6 -0.3
v 0.3 0.6 -0.4
v 0.4 0.6 -0.4
v 0 0.6 -0.5
v 0.3 0.6 -0.5
v 0 0.7 0
v 0.3 0.7 0
v 0.2 0.7 -0.2
v 0.3 0.7 -0.2
v 0 0.7 -0.3
v 0.2 0.7 -0.3

# faces
f 5/1/1 3/1/1 2/1/1
f 5/3/1 4/3/1 3/3/1
f 6/3/1 4/3/1 5/3/1
f 7/2/1 2/2/1 1/2/1
f 7/1/1 5/1/1 2/1/1
f 8/1/1 5/1/1 7/1/1
f 9/2/1 7/2/1 1/2/1
f 10/2/1 7/2/1 9/2/1
f 11/2/2 12/2/2 13/2/2
f 13/2/2 12/2/2 14/2/2
f 15/1/2 16/1/2 19/1/2
f 19/1/2 16/1/2 20/1/2
f 17/2/2 18/2/2 21/2/2
f 21/2/2 18/2/2 22/2/2
f 23/1/2 24/1/2 25/1/2
f 25/1/2 24/1/2 26/1/2
f 27/1/2 28/1/2 29/1/2
f 29/1/2 28/1/2 30/1/2
f 31/3/2 32/3/2 33/3/2
f 33/3/2 32/3/2 34/3/2
f 37/2/3 36/2/3 35/2/3
f 38/2/3 36/2/3 37/2/3
f 39/2/3 36/2/3 38/2/3
f 40/1/3 38/1/3 37/1/3
f 41/1/3 38/1/3 40/1/3
f 42/1/3 38/1/3 41/1/3
f 43/3/3 41/3/3 40/3/3
f 44/3/3 41/3/3 43/3/3
f 45/2/4 46/2/4 47/2/4
f 47/2/4 46/2/4 48/2/4
f 49/2/4 50/2/4 51/2/4
f 51/2/4 50/2/4 52/2/4
f 53/1/4 54/1/4 55/1/4
f 55/1/4 54/1/4 56/1/4
f 57/1/4 58/1/4 59/1/4
f 59/1/4 58/1/4 60/1/4
f 61/1/4 62/1/4 63/1/4
f 63/1/4 62/1/4 64/1/4
f 65/3/4 66/3/4 67/3/4
f 67/3/4 66/3/4 68/3/4
f 73/2/5 70/2/5 69/2/5
f 74/1/5 71/1/5 70/1/5
f 74/2/5 70/2/5 73/2/5
f 75/1/5 71/1/5 74/1/5
f 76/3/5 72/3/5 71/3/5
f 76/1/5 71/1/5 75/1/5
f 77/1/5 75/1/5 74/1/5
f 77/1/5 74/1/5 73/1/5
f 78/3/5 76/3/5 75/3/5
f 78/1/5 75/1/5 77/1/5
f 79/1/5 77/1/5 73/1/5
f 80/3/5 78/3/5 77/3/5
f 80/1/5 77/1/5 79/1/5
f 81/3/5 80/3/5 79/3/5
f 82/3/5 72/3/5 76/3/5
f 82/3/5 80/3/5 81/3/5
f 82/3/5 76/3/5 78/3/5
f 82/3/5 78/3/5 80/3/5
f 83/3/6 84/3/6 86/3/6
f 85/3/6 86/3/6 88/3/6
f 87/3/6 88/3/6 90/3/6
f 89/3/6 90/3/6 91/3/6
f 86/3/6 84/3/6 92/3/6
f 91/3/6 90/3/6 92/3/6
f 88/3/6 86/3/6 92/3/6
f 90/3/6 88/3/6 92/3/6
f 93/1/6 94/1/6 96/1/6
f 95/1/6 96/1/6 98/1/6
f 96/1/6 94/1/6 99/1/6
f 98/1/6 96/1/6 99/1/6
f 99/1/6 94/1/6 100/1/6
f 97/1/6 98/1/6 101/1/6
f 98/1/6 99/1/6 101/1/6
f 101/1/6 99/1/6 102/1/6
f 97/1/6 101/1/6 103/1/6
f 103/1/6 101/1/6 104/1/6
f 105/2/6 106/2/6 107/2/6
f 107/2/6 106/2/6 108/2/6
f 105/2/6 107/2/6 109/2/6
f 109/2/6 107/2/6 110/2/6
