# MagicaVoxel @ Ephtracy

# group
o 

# material
mtllib river_bridge.mtl
usemtl palette

# normals
vn -1 0 0
vn 1 0 0
vn 0 0 1
vn 0 0 -1
vn 0 -1 0
vn 0 1 0

# texcoords
vt 0.876953 0.5
vt 0.880859 0.5
vt 0.884766 0.5
vt 0.888672 0.5

# verts
v 0 0.4 0
v 0 0.4 -0.2
v 0 0.4 -0.3
v 0 0.4 -0.5
v 0 0.4 -0.6
v 0 0.4 -0.8
v 0 0.5 -0.3
v 0 0.5 -0.5
v 0 0.6 0
v 0 0.6 -0.2
v 0 0.6 -0.3
v 0 0.6 -0.5
v 0 0.6 -0.6
v 0 0.6 -0.8
v 0.3 0.6 -0.1
v 0.3 0.6 -0.2
v 0.3 0.6 -0.3
v 0.3 0.6 -0.5
v 0.3 0.6 -0.6
v 0.3 0.6 -0.7
v 0.3 0.7 -0.1
v 0.3 0.7 -0.2
v 0.3 0.7 -0.3
v 0.3 0.7 -0.5
v 0.3 0.7 -0.6
v 0.3 0.7 -0.7
v 0.3 0.8 -0.2
v 0.3 0.8 -0.6
v 0.5 0.6 -0.1
v 0.5 0.6 -0.2
v 0.5 0.6 -0.3
v 0.5 0.6 -0.5
v 0.5 0.6 -0.6
v 0.5 0.6 -0.7
v 0.5 0.7 -0.1
v 0.5 0.7 -0.2
v 0.5 0.7 -0.3
v 0.5 0.7 -0.5
v 0.5 0.7 -0.6
v 0.5 0.7 -0.7
v 0.5 0.8 -0.2
v 0.5 0.8 -0.6
v 0.8 0.4 0
v 0.8 0.4 -0.2
v 0.8 0.4 -0.3
v 0.8 0.4 -0.5
v 0.8 0.4 -0.6
v 0.8 0.4 -0.8
v 0.8 0.5 -0.3
v 0.8 0.5 -0.5
v 0.8 0.6 0
v 0.8 0.6 -0.2
v 0.8 0.6 -0.3
v 0.8 0.6 -0.5
v 0.8 0.6 -0.6
v 0.8 0.6 -0.8
v 0 0.4 0
v 0 0.6 0
v 0.3 0.5 0
v 0.3 0.6 0
v 0.5 0.5 0
v 0.5 0.6 0
v 0.8 0.4 0
v 0.8 0.6 0
v 0.3 0.6 -0.1
v 0.3 0.7 -0.1
v 0.5 0.6 -0.1
v 0.5 0.7 -0.1
v 0.3 0.7 -0.2
v 0.3 0.8 -0.2
v 0.5 0.7 -0.2
v 0.5 0.8 -0.2
v 0 0.5 -0.5
v 0 0.6 -0.5
v 0.3 0.6 -0.5
v 0.3 0.7 -0.5
v 0.5 0.6 -0.5
v 0.5 0.7 -0.5
v 0.8 0.5 -0.5
v 0.8 0.6 -0.5
v 0 0.5 -0.3
v 0 0.6 -0.3
v 0.3 0.6 -0.3
v 0.3 0.7 -0.3
v 0.5 0.6 -0.3
v 0.5 0.7 -0.3
v 0.8 0.5 -0.3
v 0.8 0.6 -0.3
v 0.3 0.7 -0.6
v 0.3 0.8 -0.6
v 0.5 0.7 -0.6
v 0.5 0.8 -0.6
v 0.3 0.6 -0.7
v 0.3 0.7 -0.7
v 0.5 0.6 -0.7
v 0.5 0.7 -0.7
v 0 0.4 -0.8
v 0 0.6 -0.8
v 0.3 0.5 -0.8
v 0.3 0.6 -0.8
v 0.5 0.5 -0.8
v 0.5 0.6 -0.8
v 0.8 0.4 -0.8
v 0.8 0.6 -0.8
v 0 0.4 0
v 0.8 0.4 0
v 0 0.4 -0.2
v 0.8 0.4 -0.2
v 0 0.4 -0.3
v 0.8 0.4 -0.3
v 0 0.4 -0.5
v 0.8 0.4 -0.5
v 0 0.4 -0.6
v 0.8 0.4 -0.6
v 0 0.4 -0.8
v 0.8 0.4 -0.8
v 0.3 0.7 -0.3
v 0.5 0.7 -0.3
v 0.3 0.7 -0.5
v 0.5 0.7 -0.5
v 0 0.5 -0.3
v 0.8 0.5 -0.3
v 0 0.5 -0.5
v 0.8 0.5 -0.5
v 0 0.6 0
v 0.3 0.6 0
v 0.5 0.6 0
v 0.8 0.6 0
v 0.3 0.6 -0.1
v 0.5 0.6 -0.1
v 0 0.6 -0.2
v 0.3 0.6 -0.2
v 0.5 0.6 -0.2
v 0.8 0.6 -0.2
v 0 0.6 -0.3
v 0.3 0.6 -0.3
v 0.5 0.6 -0.3
v 0.8 0.6 -0.3
v 0 0.6 -0.5
v 0.3 0.6 -0.5
v 0.5 0.6 -0.5
v 0.8 0.6 -0.5
v 0 0.6 -0.6
v 0.3 0.6 -0.6
v 0.5 0.6 -0.6
v 0.8 0.6 -0.6
v 0.3 0.6 -0.7
v 0.5 0.6 -0.7
v 0 0.6 -0.8
v 0.3 0.6 -0.8
v 0.5 0.6 -0.8
v 0.8 0.6 -0.8
v 0.3 0.7 -0.1
v 0.5 0.7 -0.1
v 0.3 0.7 -0.2
v 0.5 0.7 -0.2
v 0.3 0.7 -0.6
v 0.5 0.7 -0.6
v 0.3 0.7 -0.7
v 0.5 0.7 -0.7
v 0.3 0.8 -0.2
v 0.5 0.8 -0.2
v 0.3 0.8 -0.6
v 0.5 0.8 -0.6

# faces
f 7/4/1 3/4/1 2/4/1
f 7/3/1 4/3/1 3/3/1
f 8/4/1 5/4/1 4/4/1
f 8/3/1 4/3/1 7/3/1
f 9/1/1 2/1/1 1/1/1
f 10/4/1 7/4/1 2/4/1
f 10/1/1 2/1/1 9/1/1
f 11/4/1 7/4/1 10/4/1
f 12/4/1 5/4/1 8/4/1
f 13/1/1 6/1/1 5/1/1
f 13/4/1 5/4/1 12/4/1
f 14/1/1 6/1/1 13/1/1
f 21/2/1 16/2/1 15/2/1
f 21/2/1 17/2/1 16/2/1
f 22/2/1 17/2/1 21/2/1
f 23/2/1 17/2/1 22/2/1
f 24/2/1 20/2/1 19/2/1
f 24/2/1 19/2/1 18/2/1
f 25/2/1 20/2/1 24/2/1
f 26/2/1 20/2/1 25/2/1
f 27/2/1 23/2/1 22/2/1
f 27/2/1 25/2/1 24/2/1
f 27/2/1 24/2/1 23/2/1
f 28/2/1 25/2/1 27/2/1
f 29/2/2 30/2/2 35/2/2
f 30/2/2 31/2/2 35/2/2
f 35/2/2 31/2/2 36/2/2
f 36/2/2 31/2/2 37/2/2
f 33/2/2 34/2/2 38/2/2
f 32/2/2 33/2/2 38/2/2
f 38/2/2 34/2/2 39/2/2
f 39/2/2 34/2/2 40/2/2
f 36/2/2 37/2/2 41/2/2
f 38/2/2 39/2/2 41/2/2
f 37/2/2 38/2/2 41/2/2
f 41/2/2 39/2/2 42/2/2
f 44/4/2 45/4/2 49/4/2
f 45/3/2 46/3/2 49/3/2
f 46/4/2 47/4/2 50/4/2
f 49/3/2 46/3/2 50/3/2
f 43/1/2 44/1/2 51/1/2
f 44/4/2 49/4/2 52/4/2
f 51/1/2 44/1/2 52/1/2
f 52/4/2 49/4/2 53/4/2
f 50/4/2 47/4/2 54/4/2
f 47/1/2 48/1/2 55/1/2
f 54/4/2 47/4/2 55/4/2
f 55/1/2 48/1/2 56/1/2
f 59/1/3 58/1/3 57/1/3
f 60/1/3 58/1/3 59/1/3
f 61/1/3 59/1/3 57/1/3
f 61/2/3 60/2/3 59/2/3
f 62/2/3 60/2/3 61/2/3
f 63/1/3 61/1/3 57/1/3
f 63/1/3 62/1/3 61/1/3
f 64/1/3 62/1/3 63/1/3
f 67/2/3 66/2/3 65/2/3
f 68/2/3 66/2/3 67/2/3
f 71/2/3 70/2/3 69/2/3
f 72/2/3 70/2/3 71/2/3
f 75/4/3 74/4/3 73/4/3
f 77/4/3 75/4/3 73/4/3
f 77/2/3 76/2/3 75/2/3
f 78/2/3 76/2/3 77/2/3
f 79/4/3 77/4/3 73/4/3
f 80/4/3 77/4/3 79/4/3
f 81/4/4 82/4/4 83/4/4
f 81/4/4 83/4/4 85/4/4
f 83/2/4 84/2/4 85/2/4
f 85/2/4 84/2/4 86/2/4
f 81/4/4 85/4/4 87/4/4
f 87/4/4 85/4/4 88/4/4
f 89/2/4 90/2/4 91/2/4
f 91/2/4 90/2/4 92/2/4
f 93/2/4 94/2/4 95/2/4
f 95/2/4 94/2/4 96/2/4
f 97/1/4 98/1/4 99/1/4
f 99/1/4 98/1/4 100/1/4
f 97/1/4 99/1/4 101/1/4
f 99/2/4 100/2/4 101/2/4
f 101/2/4 100/2/4 102/2/4
f 97/1/4 101/1/4 103/1/4
f 101/1/4 102/1/4 103/1/4
f 103/1/4 102/1/4 104/1/4
f 107/1/5 106/1/5 105/1/5
f 108/1/5 106/1/5 107/1/5
f 109/4/5 108/4/5 107/4/5
f 110/4/5 108/4/5 109/4/5
f 111/3/5 110/3/5 109/3/5
f 112/3/5 110/3/5 111/3/5
f 113/4/5 112/4/5 111/4/5
f 114/4/5 112/4/5 113/4/5
f 115/1/5 114/1/5 113/1/5
f 116/1/5 114/1/5 115/1/5
f 119/2/5 118/2/5 117/2/5
f 120/2/5 118/2/5 119/2/5
f 121/3/6 122/3/6 123/3/6
f 123/3/6 122/3/6 124/3/6
f 125/1/6 126/1/6 129/1/6
f 126/2/6 127/2/6 129/2/6
f 127/1/6 128/1/6 130/1/6
f 129/2/6 127/2/6 130/2/6
f 125/1/6 129/1/6 131/1/6
f 131/1/6 129/1/6 132/1/6
f 130/1/6 128/1/6 133/1/6
f 133/1/6 128/1/6 134/1/6
f 131/4/6 132/4/6 135/4/6
f 135/4/6 132/4/6 136/4/6
f 133/4/6 134/4/6 137/4/6
f 137/4/6 134/4/6 138/4/6
f 139/4/6 140/4/6 143/4/6
f 143/4/6 140/4/6 144/4/6
f 141/4/6 142/4/6 145/4/6
f 145/4/6 142/4/6 146/4/6
f 143/1/6 144/1/6 147/1/6
f 145/1/6 146/1/6 148/1/6
f 143/1/6 147/1/6 149/1/6
f 147/2/6 148/2/6 150/2/6
f 149/1/6 147/1/6 150/1/6
f 148/1/6 146/1/6 151/1/6
f 150/2/6 148/2/6 151/2/6
f 151/1/6 146/1/6 152/1/6
f 153/2/6 154/2/6 155/2/6
f 155/2/6 154/2/6 156/2/6
f 157/2/6 158/2/6 159/2/6
f 159/2/6 158/2/6 160/2/6
f 161/2/6 162/2/6 163/2/6
f 163/2/6 162/2/6 164/2/6
