# MagicaVoxel @ Ephtracy

# group
o 

# material
mtllib road_crossing.mtl
usemtl palette

# normals
vn -1 0 0
vn 1 0 0
vn 0 0 1
vn 0 0 -1
vn 0 -1 0
vn 0 1 0

# texcoords
vt 0.876953 0.5
vt 0.880859 0.5
vt 0.888672 0.5

# verts
v 0 0.4 0
v 0 0.4 -0.8
v 0 0.5 -0.3
v 0 0.5 -0.5
v 0 0.6 0
v 0 0.6 -0.3
v 0 0.6 -0.5
v 0 0.6 -0.8
v 0.5 0.9 -0.3
v 0.5 0.9 -0.4
v 0.5 1 -0.3
v 0.5 1 -0.4
v 0.6 0.6 -0.3
v 0.6 0.6 -0.4
v 0.6 0.8 -0.2
v 0.6 0.8 -0.3
v 0.6 0.9 -0.2
v 0.6 0.9 -0.3
v 0.6 0.9 -0.4
v 0.6 0.9 -0.5
v 0.6 1 -0.4
v 0.6 1 -0.5
v 0.7 0.6 -0.3
v 0.7 0.6 -0.4
v 0.7 0.8 -0.2
v 0.7 0.8 -0.3
v 0.7 0.9 -0.2
v 0.7 0.9 -0.3
v 0.7 0.9 -0.4
v 0.7 0.9 -0.5
v 0.7 1 -0.3
v 0.7 1 -0.5
v 0.8 0.4 0
v 0.8 0.4 -0.8
v 0.8 0.6 0
v 0.8 0.6 -0.8
v 0 0.4 0
v 0 0.6 0
v 0.3 0.5 0
v 0.3 0.6 0
v 0.5 0.5 0
v 0.5 0.6 0
v 0.8 0.4 0
v 0.8 0.6 0
v 0.6 0.8 -0.2
v 0.6 0.9 -0.2
v 0.7 0.8 -0.2
v 0.7 0.9 -0.2
v 0.5 0.9 -0.3
v 0.5 1 -0.3
v 0.6 0.6 -0.3
v 0.6 0.8 -0.3
v 0.6 0.9 -0.3
v 0.7 0.6 -0.3
v 0.7 0.8 -0.3
v 0.7 0.9 -0.3
v 0.7 1 -0.3
v 0.5 0.9 -0.4
v 0.5 1 -0.4
v 0.6 0.6 -0.4
v 0.6 0.9 -0.4
v 0.6 1 -0.4
v 0.7 0.6 -0.4
v 0.7 0.9 -0.4
v 0.6 0.9 -0.5
v 0.6 1 -0.5
v 0.7 0.9 -0.5
v 0.7 1 -0.5
v 0 0.4 -0.8
v 0 0.6 -0.8
v 0.3 0.5 -0.8
v 0.3 0.6 -0.8
v 0.5 0.5 -0.8
v 0.5 0.6 -0.8
v 0.8 0.4 -0.8
v 0.8 0.6 -0.8
v 0 0.4 0
v 0.8 0.4 0
v 0 0.4 -0.8
v 0.8 0.4 -0.8
v 0.6 0.8 -0.2
v 0.7 0.8 -0.2
v 0.6 0.8 -0.3
v 0.7 0.8 -0.3
v 0.5 0.9 -0.3
v 0.6 0.9 -0.3
v 0.5 0.9 -0.4
v 0.6 0.9 -0.4
v 0.7 0.9 -0.4
v 0.6 0.9 -0.5
v 0.7 0.9 -0.5
v 0 0.6 0
v 0.3 0.6 0
v 0.5 0.6 0
v 0.8 0.6 0
v 0.2 0.6 -0.2
v 0.3 0.6 -0.2
v 0.5 0.6 -0.2
v 0.6 0.6 -0.2
v 0 0.6 -0.3
v 0.2 0.6 -0.3
v 0.6 0.6 -0.3
v 0.7 0.6 -0.3
v 0.6 0.6 -0.4
v 0.7 0.6 -0.4
v 0 0.6 -0.5
v 0.1 0.6 -0.5
v 0.1 0.6 -0.6
v 0.3 0.6 -0.6
v 0.5 0.6 -0.6
v 0.6 0.6 -0.6
v 0 0.6 -0.8
v 0.3 0.6 -0.8
v 0.5 0.6 -0.8
v 0.8 0.6 -0.8
v 0.6 0.9 -0.2
v 0.7 0.9 -0.2
v 0.6 0.9 -0.3
v 0.7 0.9 -0.3
v 0.5 1 -0.3
v 0.7 1 -0.3
v 0.5 1 -0.4
v 0.6 1 -0.4
v 0.6 1 -0.5
v 0.7 1 -0.5

# faces
f 3/1/1 2/1/1 1/1/1
f 4/1/1 2/1/1 3/1/1
f 5/1/1 3/1/1 1/1/1
f 6/2/1 4/2/1 3/2/1
f 6/1/1 3/1/1 5/1/1
f 7/1/1 2/1/1 4/1/1
f 7/2/1 4/2/1 6/2/1
f 8/1/1 2/1/1 7/1/1
f 11/3/1 10/3/1 9/3/1
f 12/3/1 10/3/1 11/3/1
f 16/3/1 14/3/1 13/3/1
f 17/3/1 16/3/1 15/3/1
f 18/3/1 14/3/1 16/3/1
f 18/3/1 16/3/1 17/3/1
f 19/3/1 14/3/1 18/3/1
f 21/3/1 20/3/1 19/3/1
f 22/3/1 20/3/1 21/3/1
f 23/3/2 24/3/2 26/3/2
f 25/3/2 26/3/2 27/3/2
f 26/3/2 24/3/2 28/3/2
f 27/3/2 26/3/2 28/3/2
f 28/3/2 24/3/2 29/3/2
f 29/3/2 30/3/2 31/3/2
f 28/3/2 29/3/2 31/3/2
f 31/3/2 30/3/2 32/3/2
f 33/1/2 34/1/2 35/1/2
f 35/1/2 34/1/2 36/1/2
f 39/1/3 38/1/3 37/1/3
f 40/1/3 38/1/3 39/1/3
f 41/1/3 39/1/3 37/1/3
f 41/2/3 40/2/3 39/2/3
f 42/2/3 40/2/3 41/2/3
f 43/1/3 41/1/3 37/1/3
f 43/1/3 42/1/3 41/1/3
f 44/1/3 42/1/3 43/1/3
f 47/3/3 46/3/3 45/3/3
f 48/3/3 46/3/3 47/3/3
f 53/3/3 50/3/3 49/3/3
f 54/3/3 52/3/3 51/3/3
f 55/3/3 52/3/3 54/3/3
f 56/3/3 50/3/3 53/3/3
f 57/3/3 50/3/3 56/3/3
f 58/3/4 59/3/4 61/3/4
f 61/3/4 59/3/4 62/3/4
f 60/3/4 61/3/4 63/3/4
f 63/3/4 61/3/4 64/3/4
f 65/3/4 66/3/4 67/3/4
f 67/3/4 66/3/4 68/3/4
f 69/1/4 70/1/4 71/1/4
f 71/1/4 70/1/4 72/1/4
f 69/1/4 71/1/4 73/1/4
f 71/2/4 72/2/4 73/2/4
f 73/2/4 72/2/4 74/2/4
f 69/1/4 73/1/4 75/1/4
f 73/1/4 74/1/4 75/1/4
f 75/1/4 74/1/4 76/1/4
f 79/1/5 78/1/5 77/1/5
f 80/1/5 78/1/5 79/1/5
f 83/3/5 82/3/5 81/3/5
f 84/3/5 82/3/5 83/3/5
f 87/3/5 86/3/5 85/3/5
f 88/3/5 86/3/5 87/3/5
f 90/3/5 89/3/5 88/3/5
f 91/3/5 89/3/5 90/3/5
f 92/1/6 93/1/6 96/1/6
f 93/2/6 94/2/6 97/2/6
f 96/1/6 93/1/6 97/1/6
f 94/1/6 95/1/6 98/1/6
f 97/2/6 94/2/6 98/2/6
f 98/1/6 95/1/6 99/1/6
f 92/1/6 96/1/6 100/1/6
f 96/2/6 97/2/6 101/2/6
f 100/1/6 96/1/6 101/1/6
f 97/2/6 98/2/6 101/2/6
f 98/2/6 99/2/6 101/2/6
f 99/1/6 95/1/6 102/1/6
f 101/2/6 99/2/6 102/2/6
f 102/1/6 95/1/6 103/1/6
f 100/2/6 101/2/6 104/2/6
f 101/2/6 102/2/6 104/2/6
f 103/1/6 95/1/6 105/1/6
f 100/2/6 104/2/6 106/2/6
f 106/2/6 104/2/6 107/2/6
f 106/1/6 107/1/6 108/1/6
f 107/2/6 104/2/6 108/2/6
f 108/2/6 104/2/6 109/2/6
f 109/2/6 104/2/6 110/2/6
f 104/1/6 105/1/6 111/1/6
f 110/2/6 104/2/6 111/2/6
f 106/1/6 108/1/6 112/1/6
f 108/1/6 109/1/6 112/1/6
f 109/2/6 110/2/6 113/2/6
f 112/1/6 109/1/6 113/1/6
f 110/1/6 111/1/6 114/1/6
f 113/2/6 110/2/6 114/2/6
f 105/1/6 95/1/6 115/1/6
f 114/1/6 111/1/6 115/1/6
f 111/1/6 105/1/6 115/1/6
f 116/3/6 117/3/6 118/3/6
f 118/3/6 117/3/6 119/3/6
f 120/3/6 121/3/6 122/3/6
f 122/3/6 121/3/6 123/3/6
f 123/3/6 121/3/6 124/3/6
f 124/3/6 121/3/6 125/3/6
