# MagicaVoxel @ Ephtracy

# group
o 

# material
mtllib road.mtl
usemtl palette

# normals
vn -1 0 0
vn 1 0 0
vn 0 0 1
vn 0 0 -1
vn 0 -1 0
vn 0 1 0

# texcoords
vt 0.876953 0.5
vt 0.880859 0.5

# verts
v 0 0.4 0
v 0 0.4 -0.8
v 0 0.5 -0.3
v 0 0.5 -0.5
v 0 0.6 0
v 0 0.6 -0.3
v 0 0.6 -0.5
v 0 0.6 -0.8
v 0.8 0.4 0
v 0.8 0.4 -0.8
v 0.8 0.5 -0.3
v 0.8 0.5 -0.5
v 0.8 0.6 0
v 0.8 0.6 -0.3
v 0.8 0.6 -0.5
v 0.8 0.6 -0.8
v 0 0.4 0
v 0 0.6 0
v 0.8 0.4 0
v 0.8 0.6 0
v 0 0.4 -0.8
v 0 0.6 -0.8
v 0.8 0.4 -0.8
v 0.8 0.6 -0.8
v 0 0.4 0
v 0.8 0.4 0
v 0 0.4 -0.8
v 0.8 0.4 -0.8
v 0 0.6 0
v 0.8 0.6 0
v 0.2 0.6 -0.2
v 0.4 0.6 -0.2
v 0 0.6 -0.3
v 0.2 0.6 -0.3
v 0.4 0.6 -0.3
v 0.8 0.6 -0.3
v 0 0.6 -0.5
v 0.1 0.6 -0.5
v 0.2 0.6 -0.5
v 0.5 0.6 -0.5
v 0.6 0.6 -0.5
v 0.8 0.6 -0.5
v 0.1 0.6 -0.6
v 0.2 0.6 -0.6
v 0.5 0.6 -0.6
v 0.6 0.6 -0.6
v 0 0.6 -0.8
v 0.8 0.6 -0.8

# faces
f 3/1/1 2/1/1 1/1/1
f 4/1/1 2/1/1 3/1/1
f 5/1/1 3/1/1 1/1/1
f 6/2/1 4/2/1 3/2/1
f 6/1/1 3/1/1 5/1/1
f 7/1/1 2/1/1 4/1/1
f 7/2/1 4/2/1 6/2/1
f 8/1/1 2/1/1 7/1/1
f 9/1/2 10/1/2 11/1/2
f 11/1/2 10/1/2 12/1/2
f 9/1/2 11/1/2 13/1/2
f 11/2/2 12/2/2 14/2/2
f 13/1/2 11/1/2 14/1/2
f 12/1/2 10/1/2 15/1/2
f 14/2/2 12/2/2 15/2/2
f 15/1/2 10/1/2 16/1/2
f 19/1/3 18/1/3 17/1/3
f 20/1/3 18/1/3 19/1/3
f 21/1/4 22/1/4 23/1/4
f 23/1/4 22/1/4 24/1/4
f 27/1/5 26/1/5 25/1/5
f 28/1/5 26/1/5 27/1/5
f 29/1/6 30/1/6 31/1/6
f 31/1/6 30/1/6 32/1/6
f 29/1/6 31/1/6 33/1/6
f 31/2/6 32/2/6 34/2/6
f 33/1/6 31/1/6 34/1/6
f 32/1/6 30/1/6 35/1/6
f 34/2/6 32/2/6 35/2/6
f 35/1/6 30/1/6 36/1/6
f 33/2/6 34/2/6 37/2/6
f 34/2/6 35/2/6 37/2/6
f 35/2/6 36/2/6 37/2/6
f 37/2/6 36/2/6 38/2/6
f 38/2/6 36/2/6 39/2/6
f 39/2/6 36/2/6 40/2/6
f 40/2/6 36/2/6 41/2/6
f 41/2/6 36/2/6 42/2/6
f 37/1/6 38/1/6 43/1/6
f 38/2/6 39/2/6 43/2/6
f 39/1/6 40/1/6 44/1/6
f 43/2/6 39/2/6 44/2/6
f 40/2/6 41/2/6 45/2/6
f 44/1/6 40/1/6 45/1/6
f 41/1/6 42/1/6 46/1/6
f 45/2/6 41/2/6 46/2/6
f 44/1/6 45/1/6 47/1/6
f 37/1/6 43/1/6 47/1/6
f 45/1/6 46/1/6 47/1/6
f 43/1/6 44/1/6 47/1/6
f 46/1/6 42/1/6 48/1/6
f 47/1/6 46/1/6 48/1/6
