# MagicaVoxel @ Ephtracy

# group
o 

# material
mtllib wall_turn.mtl
usemtl palette

# normals
vn -1 0 0
vn 1 0 0
vn 0 0 1
vn 0 0 -1
vn 0 -1 0
vn 0 1 0

# texcoords
vt 0.853516 0.5
vt 0.857422 0.5
vt 0.876953 0.5

# verts
v 0 0.4 0
v 0 0.4 -0.8
v 0 0.6 0
v 0 0.6 -0.8
v 0.2 0.6 -0.2
v 0.2 0.6 -0.8
v 0.2 1 -0.3
v 0.2 1 -0.4
v 0.2 1 -0.5
v 0.2 1 -0.6
v 0.2 1 -0.7
v 0.2 1 -0.8
v 0.2 1.1 -0.2
v 0.2 1.1 -0.3
v 0.2 1.1 -0.4
v 0.2 1.1 -0.5
v 0.2 1.1 -0.6
v 0.2 1.1 -0.7
v 0.4 1 -0.2
v 0.4 1 -0.3
v 0.4 1.1 -0.2
v 0.4 1.1 -0.3
v 0.6 1 -0.2
v 0.6 1 -0.3
v 0.6 1.1 -0.2
v 0.6 1.1 -0.3
v 0.3 0.9 -0.3
v 0.3 0.9 -0.8
v 0.3 1 -0.2
v 0.3 1 -0.3
v 0.3 1 -0.4
v 0.3 1 -0.5
v 0.3 1 -0.6
v 0.3 1 -0.7
v 0.3 1 -0.8
v 0.3 1.1 -0.2
v 0.3 1.1 -0.3
v 0.3 1.1 -0.4
v 0.3 1.1 -0.5
v 0.3 1.1 -0.6
v 0.3 1.1 -0.7
v 0.5 0.6 -0.5
v 0.5 0.6 -0.8
v 0.5 0.9 -0.5
v 0.5 0.9 -0.8
v 0.5 1 -0.2
v 0.5 1 -0.3
v 0.5 1.1 -0.2
v 0.5 1.1 -0.3
v 0.7 1 -0.2
v 0.7 1 -0.3
v 0.7 1.1 -0.2
v 0.7 1.1 -0.3
v 0.8 0.4 0
v 0.8 0.4 -0.8
v 0.8 0.5 -0.2
v 0.8 0.5 -0.5
v 0.8 0.5 -0.8
v 0.8 0.6 0
v 0.8 0.6 -0.2
v 0.8 0.6 -0.5
v 0.8 0.6 -0.8
v 0.8 0.9 -0.3
v 0.8 0.9 -0.5
v 0.8 1 -0.2
v 0.8 1 -0.3
v 0 0.4 0
v 0 0.6 0
v 0.8 0.4 0
v 0.8 0.6 0
v 0.2 0.6 -0.2
v 0.2 1.1 -0.2
v 0.3 1 -0.2
v 0.3 1.1 -0.2
v 0.4 1 -0.2
v 0.4 1.1 -0.2
v 0.5 1 -0.2
v 0.5 1.1 -0.2
v 0.6 1 -0.2
v 0.6 1.1 -0.2
v 0.7 1 -0.2
v 0.7 1.1 -0.2
v 0.8 0.6 -0.2
v 0.8 1 -0.2
v 0.2 1 -0.4
v 0.2 1.1 -0.4
v 0.3 1 -0.4
v 0.3 1.1 -0.4
v 0.2 1 -0.6
v 0.2 1.1 -0.6
v 0.3 1 -0.6
v 0.3 1.1 -0.6
v 0.2 1 -0.3
v 0.2 1.1 -0.3
v 0.3 0.9 -0.3
v 0.3 1 -0.3
v 0.3 1.1 -0.3
v 0.4 1 -0.3
v 0.4 1.1 -0.3
v 0.5 1 -0.3
v 0.5 1.1 -0.3
v 0.6 1 -0.3
v 0.6 1.1 -0.3
v 0.7 1 -0.3
v 0.7 1.1 -0.3
v 0.8 0.9 -0.3
v 0.8 1 -0.3
v 0.2 1 -0.5
v 0.2 1.1 -0.5
v 0.3 1 -0.5
v 0.3 1.1 -0.5
v 0.5 0.6 -0.5
v 0.5 0.9 -0.5
v 0.8 0.6 -0.5
v 0.8 0.9 -0.5
v 0.2 1 -0.7
v 0.2 1.1 -0.7
v 0.3 1 -0.7
v 0.3 1.1 -0.7
v 0 0.4 -0.8
v 0 0.6 -0.8
v 0.2 0.5 -0.8
v 0.2 0.6 -0.8
v 0.2 1 -0.8
v 0.3 0.9 -0.8
v 0.3 1 -0.8
v 0.5 0.5 -0.8
v 0.5 0.6 -0.8
v 0.5 0.9 -0.8
v 0.8 0.4 -0.8
v 0.8 0.5 -0.8
v 0.8 0.6 -0.8
v 0 0.4 0
v 0.8 0.4 0
v 0 0.4 -0.8
v 0.8 0.4 -0.8
v 0 0.6 0
v 0.8 0.6 0
v 0.2 0.6 -0.2
v 0.8 0.6 -0.2
v 0.5 0.6 -0.5
v 0.8 0.6 -0.5
v 0 0.6 -0.8
v 0.2 0.6 -0.8
v 0.5 0.6 -0.8
v 0.8 0.6 -0.8
v 0.3 0.9 -0.3
v 0.8 0.9 -0.3
v 0.5 0.9 -0.5
v 0.8 0.9 -0.5
v 0.3 0.9 -0.8
v 0.5 0.9 -0.8
v 0.3 1 -0.2
v 0.4 1 -0.2
v 0.5 1 -0.2
v 0.6 1 -0.2
v 0.7 1 -0.2
v 0.8 1 -0.2
v 0.2 1 -0.3
v 0.3 1 -0.3
v 0.4 1 -0.3
v 0.5 1 -0.3
v 0.6 1 -0.3
v 0.7 1 -0.3
v 0.8 1 -0.3
v 0.2 1 -0.4
v 0.3 1 -0.4
v 0.2 1 -0.5
v 0.3 1 -0.5
v 0.2 1 -0.6
v 0.3 1 -0.6
v 0.2 1 -0.7
v 0.3 1 -0.7
v 0.2 1 -0.8
v 0.3 1 -0.8
v 0.2 1.1 -0.2
v 0.3 1.1 -0.2
v 0.4 1.1 -0.2
v 0.5 1.1 -0.2
v 0.6 1.1 -0.2
v 0.7 1.1 -0.2
v 0.2 1.1 -0.3
v 0.3 1.1 -0.3
v 0.4 1.1 -0.3
v 0.5 1.1 -0.3
v 0.6 1.1 -0.3
v 0.7 1.1 -0.3
v 0.2 1.1 -0.4
v 0.3 1.1 -0.4
v 0.2 1.1 -0.5
v 0.3 1.1 -0.5
v 0.2 1.1 -0.6
v 0.3 1.1 -0.6
v 0.2 1.1 -0.7
v 0.3 1.1 -0.7

# faces
f 3/3/1 2/3/1 1/3/1
f 4/3/1 2/3/1 3/3/1
f 7/2/1 6/2/1 5/2/1
f 8/2/1 6/2/1 7/2/1
f 9/2/1 6/2/1 8/2/1
f 10/2/1 6/2/1 9/2/1
f 11/2/1 6/2/1 10/2/1
f 12/2/1 6/2/1 11/2/1
f 13/2/1 7/2/1 5/2/1
f 14/2/1 7/2/1 13/2/1
f 15/2/1 9/2/1 8/2/1
f 16/2/1 9/2/1 15/2/1
f 17/2/1 11/2/1 10/2/1
f 18/2/1 11/2/1 17/2/1
f 21/2/1 20/2/1 19/2/1
f 22/2/1 20/2/1 21/2/1
f 25/2/1 24/2/1 23/2/1
f 26/2/1 24/2/1 25/2/1
f 27/2/2 28/2/2 30/2/2
f 30/2/2 28/2/2 31/2/2
f 31/2/2 28/2/2 32/2/2
f 32/2/2 28/2/2 33/2/2
f 33/2/2 28/2/2 34/2/2
f 34/2/2 28/2/2 35/2/2
f 29/2/2 30/2/2 36/2/2
f 36/2/2 30/2/2 37/2/2
f 31/2/2 32/2/2 38/2/2
f 38/2/2 32/2/2 39/2/2
f 33/2/2 34/2/2 40/2/2
f 40/2/2 34/2/2 41/2/2
f 42/2/2 43/2/2 44/2/2
f 44/2/2 43/2/2 45/2/2
f 46/2/2 47/2/2 48/2/2
f 48/2/2 47/2/2 49/2/2
f 50/2/2 51/2/2 52/2/2
f 52/2/2 51/2/2 53/2/2
f 54/3/2 55/3/2 56/3/2
f 56/3/2 55/3/2 57/3/2
f 57/3/2 55/3/2 58/3/2
f 54/3/2 56/3/2 59/3/2
f 56/2/2 57/2/2 60/2/2
f 59/3/2 56/3/2 60/3/2
f 57/1/2 58/1/2 61/1/2
f 60/2/2 57/2/2 61/2/2
f 61/1/2 58/1/2 62/1/2
f 60/2/2 61/2/2 63/2/2
f 63/2/2 61/2/2 64/2/2
f 60/2/2 63/2/2 65/2/2
f 65/2/2 63/2/2 66/2/2
f 69/3/3 68/3/3 67/3/3
f 70/3/3 68/3/3 69/3/3
f 73/2/3 72/2/3 71/2/3
f 74/2/3 72/2/3 73/2/3
f 75/2/3 73/2/3 71/2/3
f 77/2/3 75/2/3 71/2/3
f 77/2/3 76/2/3 75/2/3
f 78/2/3 76/2/3 77/2/3
f 79/2/3 77/2/3 71/2/3
f 81/2/3 79/2/3 71/2/3
f 81/2/3 80/2/3 79/2/3
f 82/2/3 80/2/3 81/2/3
f 83/2/3 81/2/3 71/2/3
f 84/2/3 81/2/3 83/2/3
f 87/2/3 86/2/3 85/2/3
f 88/2/3 86/2/3 87/2/3
f 91/2/3 90/2/3 89/2/3
f 92/2/3 90/2/3 91/2/3
f 93/2/4 94/2/4 96/2/4
f 96/2/4 94/2/4 97/2/4
f 95/2/4 96/2/4 98/2/4
f 95/2/4 98/2/4 100/2/4
f 98/2/4 99/2/4 100/2/4
f 100/2/4 99/2/4 101/2/4
f 95/2/4 100/2/4 102/2/4
f 95/2/4 102/2/4 104/2/4
f 102/2/4 103/2/4 104/2/4
f 104/2/4 103/2/4 105/2/4
f 95/2/4 104/2/4 106/2/4
f 106/2/4 104/2/4 107/2/4
f 108/2/4 109/2/4 110/2/4
f 110/2/4 109/2/4 111/2/4
f 112/2/4 113/2/4 114/2/4
f 114/2/4 113/2/4 115/2/4
f 116/2/4 117/2/4 118/2/4
f 118/2/4 117/2/4 119/2/4
f 120/3/4 121/3/4 122/3/4
f 122/3/4 121/3/4 123/3/4
f 122/2/4 123/2/4 125/2/4
f 123/2/4 124/2/4 125/2/4
f 125/2/4 124/2/4 126/2/4
f 120/3/4 122/3/4 127/3/4
f 122/2/4 125/2/4 127/2/4
f 127/2/4 125/2/4 128/2/4
f 128/2/4 125/2/4 129/2/4
f 120/3/4 127/3/4 130/3/4
f 127/1/4 128/1/4 131/1/4
f 130/3/4 127/3/4 131/3/4
f 131/1/4 128/1/4 132/1/4
f 135/3/5 134/3/5 133/3/5
f 136/3/5 134/3/5 135/3/5
f 137/3/6 138/3/6 139/3/6
f 139/3/6 138/3/6 140/3/6
f 137/3/6 139/3/6 143/3/6
f 143/3/6 139/3/6 144/3/6
f 141/1/6 142/1/6 145/1/6
f 145/1/6 142/1/6 146/1/6
f 147/2/6 148/2/6 149/2/6
f 149/2/6 148/2/6 150/2/6
f 147/2/6 149/2/6 151/2/6
f 151/2/6 149/2/6 152/2/6
f 153/2/6 154/2/6 160/2/6
f 160/2/6 154/2/6 161/2/6
f 155/2/6 156/2/6 162/2/6
f 162/2/6 156/2/6 163/2/6
f 157/2/6 158/2/6 164/2/6
f 164/2/6 158/2/6 165/2/6
f 159/2/6 160/2/6 166/2/6
f 166/2/6 160/2/6 167/2/6
f 168/2/6 169/2/6 170/2/6
f 170/2/6 169/2/6 171/2/6
f 172/2/6 173/2/6 174/2/6
f 174/2/6 173/2/6 175/2/6
f 176/2/6 177/2/6 182/2/6
f 182/2/6 177/2/6 183/2/6
f 178/2/6 179/2/6 184/2/6
f 184/2/6 179/2/6 185/2/6
f 180/2/6 181/2/6 186/2/6
f 186/2/6 181/2/6 187/2/6
f 188/2/6 189/2/6 190/2/6
f 190/2/6 189/2/6 191/2/6
f 192/2/6 193/2/6 194/2/6
f 194/2/6 193/2/6 195/2/6
