# MagicaVoxel @ Ephtracy

# group
o 

# material
mtllib wall_corner.mtl
usemtl palette

# normals
vn -1 0 0
vn 1 0 0
vn 0 0 1
vn 0 0 -1
vn 0 -1 0
vn 0 1 0

# texcoords
vt 0.853516 0.5
vt 0.857422 0.5
vt 0.876953 0.5

# verts
v 0 0.4 0
v 0 0.4 -0.8
v 0 0.5 0
v 0 0.5 -0.8
v 0 0.6 0
v 0 0.6 -0.8
v 0.3 0.6 0
v 0.3 0.6 -0.4
v 0.3 0.7 -0.3
v 0.3 0.7 -0.4
v 0.3 0.8 -0.2
v 0.3 0.8 -0.3
v 0.3 0.9 0
v 0.3 0.9 -0.2
v 0.4 0.6 -0.4
v 0.4 0.6 -0.5
v 0.4 0.7 -0.3
v 0.4 0.7 -0.4
v 0.4 0.8 -0.2
v 0.4 0.8 -0.3
v 0.4 0.9 -0.2
v 0.4 0.9 -0.5
v 0.5 0.9 0
v 0.5 0.9 -0.3
v 0.5 1 0
v 0.5 1 -0.1
v 0.5 1.1 -0.1
v 0.5 1.1 -0.3
v 0.6 0.6 0
v 0.6 0.6 -0.2
v 0.6 1 0
v 0.6 1 -0.1
v 0.6 1.1 -0.1
v 0.6 1.1 -0.2
v 0.7 1 -0.2
v 0.7 1 -0.3
v 0.7 1.1 -0.2
v 0.7 1.1 -0.3
v 0.8 0.4 0
v 0.8 0.4 -0.8
v 0.8 0.5 -0.2
v 0.8 0.5 -0.5
v 0.8 0.5 -0.8
v 0.8 0.6 0
v 0.8 0.6 -0.2
v 0.8 0.6 -0.5
v 0.8 0.6 -0.8
v 0.8 0.9 -0.3
v 0.8 0.9 -0.5
v 0.8 1 -0.2
v 0.8 1 -0.3
v 0 0.4 0
v 0 0.5 0
v 0 0.6 0
v 0.3 0.5 0
v 0.3 0.6 0
v 0.3 0.9 0
v 0.5 0.9 0
v 0.5 1 0
v 0.6 0.5 0
v 0.6 0.6 0
v 0.6 1 0
v 0.8 0.4 0
v 0.8 0.6 0
v 0.5 1 -0.1
v 0.5 1.1 -0.1
v 0.6 1 -0.1
v 0.6 1.1 -0.1
v 0.6 0.6 -0.2
v 0.6 1.1 -0.2
v 0.7 1 -0.2
v 0.7 1.1 -0.2
v 0.8 0.6 -0.2
v 0.8 1 -0.2
v 0.3 0.8 -0.2
v 0.3 0.9 -0.2
v 0.4 0.8 -0.2
v 0.4 0.9 -0.2
v 0.3 0.7 -0.3
v 0.3 0.8 -0.3
v 0.4 0.7 -0.3
v 0.4 0.8 -0.3
v 0.5 0.9 -0.3
v 0.5 1.1 -0.3
v 0.7 1 -0.3
v 0.7 1.1 -0.3
v 0.8 0.9 -0.3
v 0.8 1 -0.3
v 0.3 0.6 -0.4
v 0.3 0.7 -0.4
v 0.4 0.6 -0.4
v 0.4 0.7 -0.4
v 0.4 0.6 -0.5
v 0.4 0.9 -0.5
v 0.8 0.6 -0.5
v 0.8 0.9 -0.5
v 0 0.4 -0.8
v 0 0.5 -0.8
v 0 0.6 -0.8
v 0.8 0.4 -0.8
v 0.8 0.5 -0.8
v 0.8 0.6 -0.8
v 0 0.4 0
v 0.8 0.4 0
v 0 0.4 -0.8
v 0.8 0.4 -0.8
v 0 0.6 0
v 0.3 0.6 0
v 0.6 0.6 0
v 0.8 0.6 0
v 0.6 0.6 -0.2
v 0.8 0.6 -0.2
v 0.3 0.6 -0.4
v 0.4 0.6 -0.4
v 0.4 0.6 -0.5
v 0.8 0.6 -0.5
v 0 0.6 -0.8
v 0.8 0.6 -0.8
v 0.3 0.7 -0.3
v 0.4 0.7 -0.3
v 0.3 0.7 -0.4
v 0.4 0.7 -0.4
v 0.3 0.8 -0.2
v 0.4 0.8 -0.2
v 0.3 0.8 -0.3
v 0.4 0.8 -0.3
v 0.3 0.9 0
v 0.5 0.9 0
v 0.3 0.9 -0.2
v 0.4 0.9 -0.2
v 0.5 0.9 -0.3
v 0.8 0.9 -0.3
v 0.4 0.9 -0.5
v 0.8 0.9 -0.5
v 0.5 1 0
v 0.6 1 0
v 0.5 1 -0.1
v 0.6 1 -0.1
v 0.7 1 -0.2
v 0.8 1 -0.2
v 0.7 1 -0.3
v 0.8 1 -0.3
v 0.5 1.1 -0.1
v 0.6 1.1 -0.1
v 0.6 1.1 -0.2
v 0.7 1.1 -0.2
v 0.5 1.1 -0.3
v 0.7 1.1 -0.3

# faces
f 3/3/1 2/3/1 1/3/1
f 4/3/1 2/3/1 3/3/1
f 5/1/1 4/1/1 3/1/1
f 6/1/1 4/1/1 5/1/1
f 9/2/1 8/2/1 7/2/1
f 10/2/1 8/2/1 9/2/1
f 11/2/1 9/2/1 7/2/1
f 12/2/1 9/2/1 11/2/1
f 13/2/1 11/2/1 7/2/1
f 14/2/1 11/2/1 13/2/1
f 18/2/1 16/2/1 15/2/1
f 20/2/1 18/2/1 17/2/1
f 21/2/1 20/2/1 19/2/1
f 22/2/1 16/2/1 18/2/1
f 22/2/1 20/2/1 21/2/1
f 22/2/1 18/2/1 20/2/1
f 25/2/1 24/2/1 23/2/1
f 26/2/1 24/2/1 25/2/1
f 27/2/1 24/2/1 26/2/1
f 28/2/1 24/2/1 27/2/1
f 29/2/2 30/2/2 31/2/2
f 31/2/2 30/2/2 32/2/2
f 32/2/2 30/2/2 33/2/2
f 33/2/2 30/2/2 34/2/2
f 35/2/2 36/2/2 37/2/2
f 37/2/2 36/2/2 38/2/2
f 39/3/2 40/3/2 41/3/2
f 41/3/2 40/3/2 42/3/2
f 42/3/2 40/3/2 43/3/2
f 39/3/2 41/3/2 44/3/2
f 41/2/2 42/2/2 45/2/2
f 44/3/2 41/3/2 45/3/2
f 42/1/2 43/1/2 46/1/2
f 45/2/2 42/2/2 46/2/2
f 46/1/2 43/1/2 47/1/2
f 45/2/2 46/2/2 48/2/2
f 48/2/2 46/2/2 49/2/2
f 45/2/2 48/2/2 50/2/2
f 50/2/2 48/2/2 51/2/2
f 55/3/3 53/3/3 52/3/3
f 55/1/3 54/1/3 53/1/3
f 56/1/3 54/1/3 55/1/3
f 58/2/3 56/2/3 55/2/3
f 58/2/3 57/2/3 56/2/3
f 60/3/3 55/3/3 52/3/3
f 60/2/3 59/2/3 58/2/3
f 60/2/3 58/2/3 55/2/3
f 61/2/3 59/2/3 60/2/3
f 62/2/3 59/2/3 61/2/3
f 63/3/3 60/3/3 52/3/3
f 63/3/3 61/3/3 60/3/3
f 64/3/3 61/3/3 63/3/3
f 67/2/3 66/2/3 65/2/3
f 68/2/3 66/2/3 67/2/3
f 71/2/3 70/2/3 69/2/3
f 72/2/3 70/2/3 71/2/3
f 73/2/3 71/2/3 69/2/3
f 74/2/3 71/2/3 73/2/3
f 75/2/4 76/2/4 77/2/4
f 77/2/4 76/2/4 78/2/4
f 79/2/4 80/2/4 81/2/4
f 81/2/4 80/2/4 82/2/4
f 83/2/4 84/2/4 85/2/4
f 85/2/4 84/2/4 86/2/4
f 83/2/4 85/2/4 87/2/4
f 87/2/4 85/2/4 88/2/4
f 89/2/4 90/2/4 91/2/4
f 91/2/4 90/2/4 92/2/4
f 93/2/4 94/2/4 95/2/4
f 95/2/4 94/2/4 96/2/4
f 97/3/4 98/3/4 100/3/4
f 98/1/4 99/1/4 101/1/4
f 100/3/4 98/3/4 101/3/4
f 101/1/4 99/1/4 102/1/4
f 105/3/5 104/3/5 103/3/5
f 106/3/5 104/3/5 105/3/5
f 109/3/6 110/3/6 111/3/6
f 111/3/6 110/3/6 112/3/6
f 107/1/6 108/1/6 113/1/6
f 113/1/6 114/1/6 115/1/6
f 107/1/6 113/1/6 117/1/6
f 115/1/6 116/1/6 117/1/6
f 113/1/6 115/1/6 117/1/6
f 117/1/6 116/1/6 118/1/6
f 119/2/6 120/2/6 121/2/6
f 121/2/6 120/2/6 122/2/6
f 123/2/6 124/2/6 125/2/6
f 125/2/6 124/2/6 126/2/6
f 127/2/6 128/2/6 129/2/6
f 129/2/6 128/2/6 130/2/6
f 130/2/6 128/2/6 131/2/6
f 130/2/6 131/2/6 133/2/6
f 131/2/6 132/2/6 133/2/6
f 133/2/6 132/2/6 134/2/6
f 135/2/6 136/2/6 137/2/6
f 137/2/6 136/2/6 138/2/6
f 139/2/6 140/2/6 141/2/6
f 141/2/6 140/2/6 142/2/6
f 143/2/6 144/2/6 145/2/6
f 143/2/6 145/2/6 147/2/6
f 145/2/6 146/2/6 147/2/6
f 147/2/6 146/2/6 148/2/6
